<svg width="307" height="48" viewBox="0 0 307 48" fill="none" xmlns="http://www.w3.org/2000/svg">
<rect x="0.5" y="0.5" width="69" height="47" rx="5.5" fill="white" stroke="#D9D9D9"/>
<path fill-rule="evenodd" clip-rule="evenodd" d="M21.2505 32.5165H17.0099L13.8299 20.3847C13.679 19.8267 13.3585 19.3333 12.8871 19.1008C11.7106 18.5165 10.4142 18.0514 9 17.8169V17.3498H15.8313C16.7742 17.3498 17.4813 18.0514 17.5991 18.8663L19.2491 27.6173L23.4877 17.3498H27.6104L21.2505 32.5165ZM29.9675 32.5165H25.9626L29.2604 17.3498H33.2653L29.9675 32.5165ZM38.4467 21.5514C38.5646 20.7346 39.2717 20.2675 40.0967 20.2675C41.3931 20.1502 42.8052 20.3848 43.9838 20.9671L44.6909 17.7016C43.5123 17.2345 42.216 17 41.0395 17C37.1524 17 34.3239 19.1008 34.3239 22.0165C34.3239 24.2346 36.3274 25.3992 37.7417 26.1008C39.2717 26.8004 39.861 27.2675 39.7431 27.9671C39.7431 29.0165 38.5646 29.4836 37.3881 29.4836C35.9739 29.4836 34.5596 29.1338 33.2653 28.5494L32.5582 31.8169C33.9724 32.3992 35.5025 32.6338 36.9167 32.6338C41.2752 32.749 43.9838 30.6502 43.9838 27.5C43.9838 23.5329 38.4467 23.3004 38.4467 21.5514V21.5514ZM58 32.5165L54.82 17.3498H51.4044C50.6972 17.3498 49.9901 17.8169 49.7544 18.5165L43.8659 32.5165H47.9887L48.8116 30.3004H53.8772L54.3486 32.5165H58ZM51.9936 21.4342L53.1701 27.1502H49.8723L51.9936 21.4342Z" fill="#172B85"/>
<rect x="79.5" y="0.5" width="69" height="47" rx="5.5" fill="white" stroke="#D9D9D9"/>
<path fill-rule="evenodd" clip-rule="evenodd" d="M114.5 34.3139C112.117 36.3704 109.026 37.6119 105.648 37.6119C98.1102 37.6119 92 31.4308 92 23.806C92 16.1811 98.1102 10 105.648 10C109.026 10 112.117 11.2415 114.5 13.2981C116.883 11.2415 119.974 10 123.352 10C130.89 10 137 16.1811 137 23.806C137 31.4308 130.89 37.6119 123.352 37.6119C119.974 37.6119 116.883 36.3704 114.5 34.3139Z" fill="#ED0006"/>
<path fill-rule="evenodd" clip-rule="evenodd" d="M114.5 34.3139C117.434 31.7816 119.295 28.0136 119.295 23.806C119.295 19.5983 117.434 15.8303 114.5 13.2981C116.883 11.2415 119.974 10 123.352 10C130.89 10 137 16.1811 137 23.806C137 31.4308 130.89 37.6119 123.352 37.6119C119.974 37.6119 116.883 36.3704 114.5 34.3139Z" fill="#F9A000"/>
<path fill-rule="evenodd" clip-rule="evenodd" d="M114.5 13.2979C117.434 15.8301 119.295 19.5981 119.295 23.8057C119.295 28.0133 117.434 31.7813 114.5 34.3136C111.566 31.7813 109.705 28.0133 109.705 23.8057C109.705 19.5981 111.566 15.8301 114.5 13.2979Z" fill="#FF5E00"/>
<rect x="158.5" y="0.5" width="69" height="47" rx="5.5" fill="white" stroke="#D9D9D9"/>
<path fill-rule="evenodd" clip-rule="evenodd" d="M177.8 30.4824H174.689C174.476 30.4824 174.295 30.6372 174.262 30.8473L173.003 38.8254C172.978 38.9829 173.1 39.1248 173.26 39.1248H174.745C174.958 39.1248 175.139 38.97 175.172 38.7595L175.512 36.6077C175.544 36.397 175.726 36.2424 175.938 36.2424H176.923C178.973 36.2424 180.156 35.2506 180.465 33.2854C180.604 32.4256 180.471 31.75 180.068 31.2767C179.626 30.7574 178.841 30.4824 177.8 30.4824ZM178.159 33.3963C177.989 34.5127 177.136 34.5127 176.311 34.5127H175.842L176.171 32.4277C176.19 32.3018 176.3 32.209 176.427 32.209H176.642C177.204 32.209 177.734 32.209 178.008 32.5292C178.171 32.7203 178.221 33.0041 178.159 33.3963ZM187.1 33.3605H185.61C185.483 33.3605 185.374 33.4534 185.354 33.5795L185.288 33.9961L185.184 33.8452C184.862 33.377 184.142 33.2205 183.424 33.2205C181.778 33.2205 180.372 34.4675 180.098 36.2168C179.956 37.0892 180.158 37.9235 180.653 38.5054C181.107 39.0403 181.757 39.2633 182.529 39.2633C183.856 39.2633 184.592 38.4102 184.592 38.4102L184.525 38.8243C184.5 38.9827 184.622 39.1245 184.781 39.1245H186.123C186.336 39.1245 186.516 38.9698 186.55 38.7593L187.355 33.6599C187.381 33.5031 187.259 33.3605 187.1 33.3605ZM185.023 36.2603C184.88 37.1115 184.204 37.6829 183.343 37.6829C182.91 37.6829 182.564 37.5441 182.342 37.2812C182.122 37.0201 182.038 36.6483 182.108 36.2344C182.243 35.3904 182.929 34.8005 183.778 34.8005C184.201 34.8005 184.545 34.941 184.771 35.2062C184.998 35.4742 185.088 35.8481 185.023 36.2603ZM193.538 33.3603H195.035C195.245 33.3603 195.367 33.5955 195.248 33.7675L190.268 40.9553C190.188 41.0717 190.055 41.141 189.913 41.141H188.418C188.207 41.141 188.084 40.9039 188.206 40.7315L189.757 38.5429L188.108 33.7033C188.051 33.5351 188.175 33.3603 188.354 33.3603H189.825C190.016 33.3603 190.185 33.4858 190.24 33.6687L191.115 36.5917L193.18 33.55C193.261 33.4313 193.395 33.3603 193.538 33.3603Z" fill="#253B80"/>
<path fill-rule="evenodd" clip-rule="evenodd" d="M209.771 38.8248L211.048 30.7008C211.067 30.5747 211.177 30.4819 211.304 30.4814H212.741C212.9 30.4814 213.022 30.6238 212.997 30.7812L211.737 38.7589C211.705 38.9695 211.524 39.1242 211.31 39.1242H210.026C209.868 39.1242 209.746 38.9823 209.771 38.8248ZM199.992 30.4819H196.88C196.668 30.4819 196.487 30.6366 196.454 30.8467L195.195 38.8248C195.17 38.9823 195.292 39.1242 195.451 39.1242H197.048C197.196 39.1242 197.323 39.016 197.346 38.8686L197.703 36.6071C197.736 36.3964 197.918 36.2419 198.13 36.2419H199.114C201.164 36.2419 202.347 35.2501 202.656 33.2848C202.796 32.425 202.662 31.7494 202.259 31.2762C201.817 30.7568 201.033 30.4819 199.992 30.4819ZM200.351 33.3958C200.181 34.5122 199.328 34.5122 198.503 34.5122H198.034L198.364 32.4271C198.384 32.3012 198.492 32.2084 198.62 32.2084H198.835C199.396 32.2084 199.927 32.2084 200.2 32.5286C200.364 32.7198 200.413 33.0036 200.351 33.3958ZM209.292 33.36H207.803C207.675 33.36 207.566 33.4528 207.547 33.5789L207.481 33.9956L207.376 33.8446C207.054 33.3764 206.335 33.22 205.617 33.22C203.971 33.22 202.565 34.4669 202.291 36.2162C202.149 37.0886 202.351 37.9229 202.846 38.5048C203.301 39.0398 203.949 39.2627 204.722 39.2627C206.049 39.2627 206.784 38.4097 206.784 38.4097L206.718 38.8238C206.693 38.9821 206.815 39.124 206.975 39.124H208.316C208.529 39.124 208.71 38.9693 208.743 38.7587L209.549 33.6593C209.573 33.5025 209.451 33.36 209.292 33.36ZM207.215 36.2598C207.072 37.1109 206.396 37.6823 205.534 37.6823C205.102 37.6823 204.756 37.5436 204.533 37.2806C204.313 37.0196 204.23 36.6478 204.3 36.2339C204.435 35.3899 205.121 34.8 205.969 34.8C206.392 34.8 206.736 34.9404 206.963 35.2057C207.191 35.4737 207.281 35.8476 207.215 36.2598Z" fill="#179BD7"/>
<path d="M189.314 27.6276L189.697 25.1981L188.845 25.1783H184.776L187.603 7.25069C187.612 7.19656 187.641 7.1461 187.682 7.11027C187.724 7.07444 187.778 7.05469 187.833 7.05469H194.693C196.971 7.05469 198.542 7.5286 199.363 8.464C199.748 8.90282 199.993 9.36137 200.111 9.866C200.235 10.3955 200.238 11.0281 200.116 11.7997L200.107 11.856V12.3504L200.492 12.5684C200.816 12.7402 201.073 12.937 201.271 13.1622C201.6 13.5374 201.813 14.0142 201.903 14.5796C201.996 15.161 201.965 15.8529 201.813 16.6361C201.637 17.5372 201.354 18.3219 200.97 18.964C200.618 19.5557 200.169 20.0463 199.636 20.4268C199.127 20.788 198.522 21.0623 197.838 21.2379C197.175 21.4103 196.42 21.4975 195.591 21.4975H195.057C194.676 21.4975 194.305 21.635 194.014 21.8815C193.722 22.1331 193.529 22.4767 193.47 22.8527L193.429 23.0714L192.754 27.3533L192.723 27.5106C192.715 27.5605 192.701 27.5853 192.681 27.6021C192.662 27.6173 192.636 27.6276 192.61 27.6276H189.314Z" fill="#253B80"/>
<path d="M200.856 11.9141C200.836 12.045 200.813 12.1788 200.786 12.3163C199.881 16.9611 196.786 18.5657 192.833 18.5657H190.821C190.337 18.5657 189.93 18.9168 189.855 19.3936L188.824 25.929L188.532 27.7815C188.483 28.0945 188.725 28.3768 189.041 28.3768H192.61C193.033 28.3768 193.392 28.0697 193.459 27.6528L193.494 27.4714L194.166 23.2061L194.209 22.9722C194.275 22.5539 194.635 22.2467 195.057 22.2467H195.591C199.05 22.2467 201.757 20.8425 202.549 16.779C202.879 15.0815 202.708 13.6642 201.833 12.6673C201.569 12.3668 201.24 12.1174 200.856 11.9141Z" fill="#179BD7"/>
<path d="M199.91 11.5366C199.772 11.4964 199.629 11.4598 199.482 11.4269C199.336 11.3948 199.185 11.3662 199.03 11.3414C198.487 11.2536 197.893 11.2119 197.256 11.2119H191.879C191.746 11.2119 191.621 11.2419 191.508 11.296C191.26 11.4152 191.076 11.65 191.031 11.9374L189.887 19.1822L189.854 19.3936C189.93 18.9167 190.337 18.5657 190.82 18.5657H192.833C196.786 18.5657 199.881 16.9603 200.786 12.3163C200.813 12.1788 200.836 12.0449 200.856 11.914C200.627 11.7926 200.379 11.6888 200.112 11.6003C200.046 11.5783 199.978 11.5571 199.91 11.5366Z" fill="#222D65"/>
<path d="M191.031 11.9373C191.076 11.6499 191.26 11.4151 191.508 11.2967C191.621 11.2425 191.747 11.2125 191.879 11.2125H197.256C197.893 11.2125 198.487 11.2542 199.03 11.342C199.185 11.3669 199.336 11.3954 199.483 11.4276C199.629 11.4605 199.772 11.4971 199.91 11.5373C199.979 11.5577 200.047 11.5789 200.113 11.6002C200.38 11.6887 200.628 11.7932 200.857 11.9139C201.126 10.1974 200.855 9.02873 199.927 7.97046C198.904 6.80542 197.057 6.30664 194.694 6.30664H187.834C187.351 6.30664 186.939 6.65767 186.865 7.13525L184.007 25.2472C183.951 25.6055 184.227 25.9289 184.589 25.9289H188.824L189.887 19.1821L191.031 11.9373Z" fill="#253B80"/>
<rect x="237.5" y="0.5" width="69" height="47" rx="5.5" fill="#1F72CD" stroke="#D9D9D9"/>
<path fill-rule="evenodd" clip-rule="evenodd" d="M249.549 17L243 31.4935H250.84L251.812 29.1826H254.034L255.006 31.4935H263.636V29.7298L264.405 31.4935H268.87L269.639 29.6925V31.4935H287.587L289.769 29.2426L291.813 31.4935L301.032 31.5121L294.462 24.2872L301.032 17H291.956L289.832 19.2093L287.852 17H268.327L266.65 20.7409L264.934 17H257.11V18.7037L256.24 17H249.549ZM276.352 19.0581H286.658L289.811 22.4633L293.065 19.0581H296.217L291.427 24.2852L296.217 29.452H292.922L289.769 26.0073L286.499 29.452H276.352V19.0581ZM278.897 23.1099V21.2114V21.2096H285.328L288.134 24.2458L285.204 27.2986H278.897V25.226H284.52V23.1099H278.897ZM251.066 19.0581H254.888L259.232 28.8862V19.0581H263.419L266.774 26.1048L269.867 19.0581H274.033V29.4581H271.498L271.477 21.3087L267.782 29.4581H265.514L261.798 21.3087V29.4581H256.584L255.595 27.1266H250.254L249.267 29.4561H246.474L251.066 19.0581ZM251.166 24.9712L252.926 20.8177L254.683 24.9712H251.166Z" fill="white"/>
</svg>
